# xmcd
#
# Track frame offsets:
#	150
#	14926
#	29298
#	50208
#	64489
#	85297
#	99884
#	113301
#	125192
#	143744
#	178569
#	187992
#	218936
#	235222
#	253828
#
# Disc length: 3613 seconds
#
# Revision: 1
# Processed by: cddbd v1.5.2PL0 Copyright (c) Steve Scherf et al.
# Submitted via: audiograbber 1.83.01
#
DISCID=dc0e1b0f
DTITLE=John Denver - John Denver In Concert - Disc 3
DYEAR=2007
DGENRE=Country
TTITLE0=Starwood In Aspen
TTITLE1=Follow Me
TTITLE2=Thank God I´m A Country Boy
TTITLE3=Sunshine On My Shoulder
TTITLE4=Fly Away
TTITLE5=Johnny B Good
TTITLE6=Memphis
TTITLE7=How Mountain Girls Can Love
TTITLE8=I´d Rather Be A Cowboy
TTITLE9=Jet Plane - Goodby Again
TTITLE10=Deal With The Ladies
TTITLE11=Bells Of Rhymney
TTITLE12=Autograph
TTITLE13=Me And My Uncle
TTITLE14=Is It Love?
EXTD=
EXTT0=
EXTT1=
EXTT2=
EXTT3=
EXTT4=
EXTT5=
EXTT6=
EXTT7=
EXTT8=
EXTT9=
EXTT10=
EXTT11=
EXTT12=
EXTT13=
EXTT14=
PLAYORDER=
